<svg xmlns="http://www.w3.org/2000/svg"
  width="203"
  height="10"
  viewBox="0 0 203 10">
  <path fill="#FFDF00"
    fill-rule="evenodd"
    d="M198.626 5.926c.927.056 2.62.037 2.47.518-.164.529-1.86.484-2.975.46-6.01-.126-12.014-.309-18.022-.442-18.144-.401-36.296-.38-54.459-.219-23.943.212-47.73 1.175-71.563 1.931-12.593.4-25.145 1.034-37.82 1.02-3.448-.004-6.826-.185-10.14-.533C.514 8.07 0 7.5 1.087 5.566c.578-1.032 2.477-2.126 5.288-2.77 1.54-.354 2.91-.6 4.12.196 1.026.675 2.865.719 4.759.908 6.799.681 13.723.168 20.002-.312 8.016-.613 16.153-1.024 24.175-1.492 9.4-.55 18.965-.914 28.51-1.221C99.775.494 111.657.553 123.484.108c3.497-.132 7.433-.274 10.896.435.09.019.278.018.346-.005 3.434-1.142 7.624.752 11.093-.386.366-.12 1.286-.173 1.668-.085 4.857 1.118 10.437.249 15.513.815 1.826.203 3.96.324 5.793-.203.331-.095 1.018-.154 1.346-.09 4.428.872 9.707.11 14.094 1.043.289.061.766.11 1.024.063 4.435-.809 7.852 1.206 12.378.605 1.454-.193 4.326 1.792 3.187 2.393-1.18.623-.628.686.717.85.785.097 1.747.203 1.38.622-.401.453-1.416.336-2.382.292-3.397-.155-6.802-.287-10.207-.416-.675-.025-1.45-.083-2.02.377 3.62.173 6.983-.694 10.315-.492z"/>
</svg>
