<svg xmlns="http://www.w3.org/2000/svg"
  width="18"
  height="12"
  viewBox="0 0 18 12">
  <path fill="#FFF"
    fill-rule="evenodd"
    d="M259.367977,1045.00164 L272.436115,1045 C273.327634,1045 273.65092,1045.09283 273.976846,1045.26713 C274.302772,1045.44144 274.55856,1045.69723 274.732867,1046.02315 C274.907174,1046.34908 275,1046.67237 275,1047.56389 L275,1054.43611 C275,1055.32763 274.907174,1055.65092 274.732867,1055.97685 C274.55856,1056.30277 274.302772,1056.55856 273.976846,1056.73287 C273.65092,1056.90717 273.327634,1057 272.436115,1057 L259.563885,1057 C258.672366,1057 258.34908,1056.90717 258.023154,1056.73287 C257.697228,1056.55856 257.44144,1056.30277 257.267133,1055.97685 C257.106234,1055.67599 257.014763,1055.37739 257.001643,1054.63202 L257,1047.56389 C257,1046.67237 257.092826,1046.34908 257.267133,1046.02315 C257.44144,1045.69723 257.697228,1045.44144 258.023154,1045.26713 C258.324009,1045.10623 258.622614,1045.01476 259.367977,1045.00164 L259.367977,1045.00164 Z M263.579687,1048.00146 L262.463477,1048.00146 L260.398047,1054 L261.413184,1054 L261.949316,1052.33887 L264.054297,1052.33887 L264.586035,1054 L265.640723,1054 L263.579687,1048.00146 Z M268.570801,1048.00146 L266.500977,1048.00146 L266.500977,1054 L268.570801,1054 C270.350586,1054 271.233887,1052.92334 271.233887,1050.98975 C271.233887,1049.06055 270.359375,1048.00146 268.570801,1048.00146 Z M268.465332,1048.84082 C269.691406,1048.84082 270.205566,1049.63184 270.205566,1051.00293 C270.205566,1052.54541 269.577148,1053.16064 268.465332,1053.16064 L267.498535,1053.16064 L267.498535,1048.84082 L268.465332,1048.84082 Z M263.025977,1049.03857 L263.830176,1051.57422 L262.173437,1051.57422 L262.986426,1049.03857 L263.025977,1049.03857 Z"
    transform="translate(-257 -1045)"/>
</svg>
